<?xml version="1.0" standalone="no"?>
<!DOCTYPE svg PUBLIC "-//W3C//DTD SVG 20010904//EN"
 "http://www.w3.org/TR/2001/REC-SVG-20010904/DTD/svg10.dtd">
<svg version="1.0" xmlns="http://www.w3.org/2000/svg"
 width="700.000000pt" height="700.000000pt" viewBox="0 0 700.000000 700.000000"
 preserveAspectRatio="xMidYMid meet">
<metadata>
Created by potrace 1.14, written by Peter Selinger 2001-2017
</metadata>
<g transform="translate(0.000000,700.000000) scale(0.100000,-0.100000)"
fill="#000000" stroke="none">
<path d="M3377 6864 c-1 -1 -49 -5 -107 -8 -372 -23 -760 -117 -1115 -270 -68
-29 -289 -139 -305 -151 -8 -7 -35 -23 -60 -36 -25 -13 -49 -27 -55 -31 -5 -5
-55 -38 -110 -74 -293 -195 -559 -444 -790 -738 -16 -22 -34 -44 -40 -50 -5
-7 -14 -19 -20 -28 -5 -9 -45 -68 -87 -132 -43 -63 -78 -117 -78 -120 0 -3
-15 -29 -33 -58 -38 -60 -146 -277 -176 -353 -10 -27 -27 -68 -37 -90 -10 -22
-18 -42 -19 -45 -1 -3 -23 -72 -48 -155 -60 -191 -64 -202 -73 -250 -4 -22 -8
-42 -9 -45 -46 -173 -79 -476 -79 -730 0 -119 11 -339 19 -379 2 -13 7 -44 10
-70 3 -25 7 -59 10 -76 3 -16 7 -41 9 -55 2 -14 7 -36 10 -50 3 -14 8 -36 10
-50 2 -14 14 -65 26 -115 12 -49 23 -94 24 -100 7 -34 64 -206 98 -295 77
-201 179 -410 279 -568 34 -53 66 -106 73 -116 6 -11 16 -27 23 -35 7 -9 42
-56 79 -106 37 -49 71 -94 76 -100 4 -5 18 -21 29 -35 144 -175 405 -424 570
-543 217 -156 325 -223 524 -321 123 -60 180 -86 275 -123 76 -29 228 -83 250
-88 8 -1 42 -10 75 -19 33 -9 71 -19 84 -22 12 -3 53 -12 90 -20 105 -25 108
-26 266 -48 683 -94 1428 36 2017 353 40 21 89 47 108 58 19 10 68 40 108 66
40 26 77 47 82 47 6 0 10 4 10 8 0 4 15 16 33 27 34 20 208 152 266 201 429
367 745 805 959 1329 47 114 124 360 148 470 10 43 36 171 39 190 1 11 5 34 8
50 3 17 9 55 12 85 4 30 8 66 10 80 24 173 24 590 0 745 -3 17 -7 46 -9 65 -5
36 -19 131 -21 140 -1 3 -5 28 -10 55 -9 60 -8 54 -39 180 -2 6 -6 24 -10 40
-68 273 -224 640 -375 885 -28 45 -51 85 -51 90 0 5 -3 10 -8 12 -4 2 -27 32
-51 68 -105 156 -253 331 -411 487 -324 321 -724 579 -1155 746 -82 32 -301
103 -343 112 -9 2 -37 8 -62 14 -25 7 -56 14 -70 16 -14 3 -45 10 -70 15 -71
15 -115 22 -285 45 -99 13 -488 28 -498 19z"/>
</g>
</svg>
