<svg width="100" height="100" viewBox="0 0 100 100" fill="none" xmlns="http://www.w3.org/2000/svg">
<path d="M33.9882 16C44.5968 25.1165 41.3008 65.4681 29.7467 65.4681C14.0895 65.4681 33.1416 28.3995 54.3555 23.9208C91.8735 16 79.2679 75.3128 26.9879 84" stroke="white" stroke-width="15" stroke-linecap="round"/>
<path fill-rule="evenodd" clip-rule="evenodd" d="M29.6953 12.311C31.7327 9.94008 35.3064 9.66975 37.6772 11.7072C40.6826 14.2898 42.6131 18.0679 43.8546 22.0218C46.7852 20.3561 49.9161 19.0731 53.1863 18.3827C63.8395 16.1336 72.8042 18.3789 77.863 25.4523C82.6206 32.1045 82.5083 41.1811 79.7133 49.5294C74.0271 66.513 56.0451 84.9094 27.9158 89.5836C24.832 90.096 21.9167 88.0116 21.4043 84.9278C20.8919 81.8441 22.9764 78.9288 26.0601 78.4164C50.2107 74.4033 64.6715 58.7998 68.9786 45.9354C71.1802 39.3597 70.4522 34.5503 68.6552 32.0376C67.1594 29.9461 63.6305 27.7476 55.5247 29.4589C52.4321 30.1118 49.1594 31.7546 45.9451 34.1824C46.1583 37.6501 46.1062 41.202 45.8188 44.6261C45.3158 50.6208 44.0571 56.6371 41.9365 61.3452C40.0447 65.5453 36.2969 71.1283 29.7467 71.1283C26.6432 71.1283 23.5379 70.1724 21.264 67.6889C19.0884 65.3128 18.4061 62.3286 18.3446 59.7406C18.2252 54.7126 20.3577 48.8809 23.2761 43.6259C25.9773 38.7622 29.6832 33.7951 34.0348 29.5426C33.9837 29.2496 33.9298 28.9601 33.8733 28.6742C32.9406 23.961 31.4746 21.303 30.2991 20.2929C27.9283 18.2554 27.6579 14.6818 29.6953 12.311ZM34.0835 47.5556C33.7657 48.0787 33.4618 48.6015 33.1727 49.1221C30.6335 53.6941 29.6128 57.4094 29.6618 59.4718C29.6638 59.5584 29.6676 59.6367 29.6725 59.7072C29.9969 59.4498 30.7073 58.7112 31.6148 56.6963C32.669 54.3557 33.5308 51.1839 34.0835 47.5556ZM29.2237 59.7613C29.224 59.7611 29.2299 59.7626 29.2407 59.7666C29.2288 59.7636 29.2234 59.7616 29.2237 59.7613ZM29.7681 60.2617C29.768 60.2618 29.7662 60.2582 29.7632 60.2504C29.7668 60.2577 29.7682 60.2616 29.7681 60.2617Z" fill="white"/>
<mask id="mask0" mask-type="alpha" maskUnits="userSpaceOnUse" x="25" y="29" width="31" height="46">
<path d="M55.5245 29.459C52.4319 30.1119 49.1592 31.7546 45.9449 34.1825C43.8043 35.5709 38.4353 40.1892 34.0833 47.5557C33.7655 48.0788 33.4617 48.6015 33.1725 49.1222C31.2149 51.4496 27.0518 57.8711 26.0599 64.9377C24.82 73.7709 32.4667 78.2534 43.4094 69.2884C52.1635 62.1163 55.1337 39.7471 55.5245 29.459Z" fill="url(#paint0_linear)"/>
</mask>
<g mask="url(#mask0)">
<g filter="url(#filter0_f)">
<path d="M33.9882 16C36.2185 17.9166 37.8342 21.2138 38.8879 25.2263M26.9879 84C79.2679 75.3128 91.8735 16 54.3555 23.9208C33.1416 28.3995 14.0895 65.4681 29.7467 65.4681C36.3994 65.4681 40.3143 52.0903 40.4135 39" stroke="black" stroke-opacity="0.36" stroke-width="2" stroke-linecap="round"/>
</g>
</g>
<mask id="mask1" mask-type="alpha" maskUnits="userSpaceOnUse" x="18" y="17" width="64" height="73">
<path fill-rule="evenodd" clip-rule="evenodd" d="M43.8546 22.0218C46.7852 20.3561 49.9161 19.0731 53.1863 18.3827C63.8395 16.1336 72.8042 18.3789 77.863 25.4522C82.6206 32.1045 82.5083 41.1811 79.7133 49.5294C74.0271 66.5129 56.0451 84.9094 27.9158 89.5836C24.832 90.096 21.9167 88.0115 21.4043 84.9278C20.8919 81.844 22.9764 78.9288 26.0601 78.4163C50.2107 74.4033 64.6715 58.7997 68.9786 45.9353C71.1802 39.3596 70.4522 34.5502 68.6552 32.0376C67.1594 29.9461 63.6305 27.7476 55.5247 29.4589C52.4321 30.1118 49.1594 31.7545 45.9451 34.1824C46.1583 37.65 46.1062 41.2019 45.8188 44.626C45.3158 50.6208 44.0571 56.637 41.9365 61.3452C40.0447 65.5453 36.2969 71.1283 29.7467 71.1283C26.6432 71.1283 23.5379 70.1724 21.264 67.6888C19.0884 65.3127 18.4061 62.3286 18.3446 59.7405C18.2252 54.7126 20.3577 48.8808 23.2761 43.6258C25.9773 38.7622 29.6832 33.795 34.0348 29.5426C35.1743 28.429 40.924 23.6875 43.8546 22.0218ZM34.0835 47.5555C33.7657 48.0787 33.4618 48.6014 33.1727 49.1221C30.6335 53.6941 29.6128 57.4094 29.6618 59.4718C29.6638 59.5583 29.6676 59.6366 29.6725 59.7072C29.9969 59.4498 30.7073 58.7112 31.6148 56.6962C32.669 54.3557 33.5308 51.1838 34.0835 47.5555ZM29.2237 59.7613C29.2237 59.7613 29.2299 59.7626 29.2407 59.7666C29.2288 59.7635 29.2237 59.7613 29.2237 59.7613Z" fill="#7800F0"/>
</mask>
<g mask="url(#mask1)">
<g filter="url(#filter1_f)">
<path d="M29.7467 65.4681C14.0895 65.4681 33.1416 28.3994 54.3555 23.9207C91.8735 15.9999 79.2679 75.3127 26.9879 83.9999" stroke="black" stroke-opacity="0.36" stroke-width="2" stroke-linecap="round"/>
</g>
</g>
<mask id="mask2" mask-type="alpha" maskUnits="userSpaceOnUse" x="24" y="3" width="20" height="27">
<path d="M34.0348 29.5426C35.1743 28.4291 40.924 23.6875 43.8546 22.0218C43.8546 12.641 43.0338 3.07903 33.3632 4.05695C23.6926 5.03488 18.1904 26.6684 34.0348 29.5426Z" fill="url(#paint1_linear)"/>
</mask>
<g mask="url(#mask2)">
<g filter="url(#filter2_f)">
<path d="M33.9882 16C36.2185 17.9166 37.8342 21.2138 38.8879 25.2263M26.9879 84C79.2679 75.3128 91.8735 16 54.3555 23.9208C33.1416 28.3995 14.0895 65.4681 29.7467 65.4681C36.3994 65.4681 40.3143 52.0903 40.4135 39" stroke="black" stroke-opacity="0.36" stroke-width="2" stroke-linecap="round"/>
</g>
</g>
<defs>
<filter id="filter0_f" x="18" y="10" width="63.9997" height="80.0002" filterUnits="userSpaceOnUse" color-interpolation-filters="sRGB">
<feFlood flood-opacity="0" result="BackgroundImageFix"/>
<feBlend mode="normal" in="SourceGraphic" in2="BackgroundImageFix" result="shape"/>
<feGaussianBlur stdDeviation="2.5" result="effect1_foregroundBlur"/>
</filter>
<filter id="filter1_f" x="18" y="17.1963" width="63.9997" height="72.8038" filterUnits="userSpaceOnUse" color-interpolation-filters="sRGB">
<feFlood flood-opacity="0" result="BackgroundImageFix"/>
<feBlend mode="normal" in="SourceGraphic" in2="BackgroundImageFix" result="shape"/>
<feGaussianBlur stdDeviation="2.5" result="effect1_foregroundBlur"/>
</filter>
<filter id="filter2_f" x="18" y="10" width="63.9997" height="80.0002" filterUnits="userSpaceOnUse" color-interpolation-filters="sRGB">
<feFlood flood-opacity="0" result="BackgroundImageFix"/>
<feBlend mode="normal" in="SourceGraphic" in2="BackgroundImageFix" result="shape"/>
<feGaussianBlur stdDeviation="2.5" result="effect1_foregroundBlur"/>
</filter>
<linearGradient id="paint0_linear" x1="33.3982" y1="68.3449" x2="25.9282" y2="66.983" gradientUnits="userSpaceOnUse">
<stop stop-color="#C4C4C4"/>
<stop offset="1" stop-color="#C4C4C4" stop-opacity="0"/>
</linearGradient>
<linearGradient id="paint1_linear" x1="33.9507" y1="12.9306" x2="33.9507" y2="29.5426" gradientUnits="userSpaceOnUse">
<stop stop-color="#C4C4C4"/>
<stop offset="1" stop-color="#C4C4C4" stop-opacity="0"/>
</linearGradient>
</defs>
</svg>
